<svg width="69" height="71" viewBox="0 0 69 71" fill="none" xmlns="http://www.w3.org/2000/svg">
<path d="M12.9697 9.86133L34.4658 32.3457L56.0303 9.86133L56.1709 9.71484L56.3154 9.85742L59.1406 12.6523L59.2812 12.791L59.1445 12.9336L37.499 35.4297L59.0752 57.8574L59.207 57.9941L59.0771 58.1328L56.3203 61.0674L56.1758 61.2207L56.0303 61.0684L34.4658 38.583L12.9707 61.1377L12.8281 61.2871L12.6836 61.1406L9.85742 58.2764L9.7207 58.1377L9.85547 57.9971L31.4307 35.5L9.85547 13.0029L9.7207 12.8623L9.85742 12.7236L12.6836 9.85938L12.8281 9.71289L12.9697 9.86133Z" fill="black" stroke="black" stroke-width="0.4"/>
</svg>
